# xmcd
#
# Track frame offsets:
#	151
#	13380
#	29491
#	40462
#	54721
#	66730
#	79943
#	93222
#	108522
#	123139
#	136760
#	146679
#	157882
#	175966
#
# Disc length: 2539 seconds
#
# Revision: 0
# Processed by: cddbd v1.5.2PL0 Copyright (c) Steve Scherf et al.
# Submitted via: dBpowerAMP V4.0
#
DISCID=c609e90e
DTITLE=Various Artist - Mountain Home
DYEAR=1900
DGENRE=Country
TTITLE0=Mountain Home
TTITLE1=Wesphalia Waltz
TTITLE2=Wildwood Flower
TTITLE3=Tennessee Waltz
TTITLE4=Old SPinning Wheel
TTITLE5=Midnight On The Water
TTITLE6=Old Joe Clark
TTITLE7=Kentucky Waltz
TTITLE8=Gold Watch And Chain
TTITLE9=Down In The Willow Garden
TTITLE10=Red WIng
TTITLE11=Rosewood Casket
TTITLE12=Bonapart's Retreat
TTITLE13=Home Sweet Home
EXTD=
EXTT0=
EXTT1=
EXTT2=
EXTT3=
EXTT4=
EXTT5=
EXTT6=
EXTT7=
EXTT8=
EXTT9=
EXTT10=
EXTT11=
EXTT12=
EXTT13=
PLAYORDER=
